<svg width="22" height="22" viewBox="0 0 22 22" fill="none" xmlns="http://www.w3.org/2000/svg">
<path fill-rule="nonzero" clip-rule="evenodd" d="M19.7297 1.71045C18.4358 0.416516 16.3379 0.416516 15.044 1.71045C13.75 3.00439 13.75 5.10228 15.044 6.39621C16.3379 7.69015 18.4358 7.69015 19.7297 6.39621C21.0237 5.10228 21.0237 3.00439 19.7297 1.71045Z M15.0157 1.68217C16.3252 0.37261 18.4484 0.37261 19.758 1.68217C21.0676 2.99173 21.0676 5.11494 19.758 6.4245C18.4484 7.73406 16.3252 7.73406 15.0157 6.4245C13.7061 5.11494 13.7061 2.99173 15.0157 1.68217Z M6.05334 1.7H9.60889C9.61994 1.7 9.62889 1.70895 9.62889 1.72V1.83133C9.62889 1.84237 9.61994 1.85133 9.60889 1.85133H6.05334C5.11958 1.85133 4.42047 1.85134 3.86564 1.89668C3.31103 1.94199 2.90234 2.03248 2.54911 2.21246C1.92567 2.53012 1.41879 3.037 1.10113 3.66044C0.921153 4.01367 0.830662 4.42236 0.785349 4.97696C0.740017 5.5318 0.740001 6.23091 0.740001 7.16466V15.2534C0.740047 16.1433 0.741453 16.8158 0.785348 17.353C0.83066 17.9076 0.921152 18.3163 1.10113 18.6695C1.41879 19.293 1.92567 19.7999 2.54911 20.1175C2.90234 20.2975 3.31103 20.388 3.86564 20.4333C4.42047 20.4786 5.11958 20.4786 6.05333 20.4786H14.2756C15.2093 20.4786 15.9084 20.4786 16.4633 20.4333C17.0179 20.388 17.4265 20.2975 17.7798 20.1175C18.4032 19.7999 18.9101 19.293 19.2278 18.6695C19.4077 18.3163 19.4982 17.9076 19.5435 17.353C19.5889 16.7982 19.5889 16.0991 19.5889 15.1653L19.5889 11.72C19.5889 11.709 19.5978 11.7 19.6089 11.7C19.6199 11.7 19.6289 11.709 19.6289 11.72L19.6289 15.1653C19.6289 15.2021 19.6289 15.2395 19.6289 15.2756C19.6289 16.2082 19.6289 16.9099 19.5834 17.4665C19.5379 18.0236 19.4467 18.4381 19.2634 18.7979C18.9419 19.4289 18.4289 19.9419 17.7979 20.2634C17.4381 20.4467 17.0236 20.5379 16.4665 20.5834C15.9099 20.6289 15.2091 20.6289 14.2765 20.6289H6.05333C5.12071 20.6289 4.41904 20.6289 3.86238 20.5834C3.3053 20.5379 2.89076 20.4467 2.53095 20.2634C1.89998 19.9419 1.38699 19.4289 1.06549 18.7979C0.882161 18.4381 0.790997 18.0236 0.745482 17.4665C0.700001 16.9099 0.700001 16.2091 0.700001 15.2765V15.2551C0.7 15.2257 0.7 15.1961 0.7 15.1663L0.700001 7.05333C0.700001 6.12072 0.700001 5.41903 0.745482 4.86238C0.790997 4.3053 0.882161 3.89076 1.06549 3.53095C1.38699 2.89998 1.89998 2.38699 2.53095 2.06549C2.89076 1.88216 3.3053 1.791 3.86238 1.74548C4.41903 1.7 5.12072 1.7 6.05334 1.7Z M0.985307 3.81729C1.01907 3.72377 1.05747 3.63481 1.10113 3.54911 1.41879 2.92567 1.92567 2.41879 2.54911 2.10113 2.90234 1.92115 3.31103 1.83066 3.86564 1.78535 4.42047 1.74002 5.11958 1.74 6.05334 1.74L9.58889 1.74 9.58889 1.81133 6.05238 1.81133C5.11977 1.81133 4.41903 1.81133 3.86238 1.85681 3.3053 1.90232 2.89076 1.99349 2.53095 2.17682 1.89998 2.49831 1.38699 3.01131 1.06549 3.64228 1.03652 3.69913 1.00986 3.75735 0.985307 3.81729Z M0.988664 18.5208C1.01228 18.5779 1.03784 18.6334 1.06549 18.6877 1.38699 19.3187 1.89998 19.8317 2.53095 20.1532 2.89076 20.3365 3.3053 20.4277 3.86238 20.4732 4.41903 20.5186 5.12071 20.5186 6.05333 20.5186L14.2765 20.5186C15.2091 20.5186 15.9099 20.5186 16.4665 20.4732 17.0236 20.4277 17.4381 20.3365 17.7979 20.1532 18.4289 19.8317 18.9419 19.3187 19.2634 18.6877 19.2911 18.6334 19.3166 18.5779 19.3402 18.5208 19.3073 18.611 19.27 18.6969 19.2278 18.7798 18.9101 19.4032 18.4032 19.9101 17.7798 20.2278 17.4266 20.4077 17.0179 20.4982 16.4633 20.5435 15.9084 20.5889 15.2093 20.5889 14.2756 20.5889L6.05333 20.5889C5.11958 20.5889 4.42047 20.5889 3.86564 20.5435 3.31103 20.4982 2.90234 20.4077 2.54911 20.2278 1.92567 19.9101 1.41879 19.4032 1.10113 18.7798 1.05891 18.6969 1.02161 18.611 0.988664 18.5208Z" stroke="white" stroke-width="3.2" stroke-linecap="round" stroke-linejoin="round"/>
</svg>